<?xml version="1.0" standalone="no"?>
<!DOCTYPE svg PUBLIC "-//W3C//DTD SVG 20010904//EN"
 "http://www.w3.org/TR/2001/REC-SVG-20010904/DTD/svg10.dtd">
<svg version="1.0" xmlns="http://www.w3.org/2000/svg"
 width="250.000000pt" height="250.000000pt" viewBox="0 0 250.000000 250.000000"
 preserveAspectRatio="xMidYMid meet">
<metadata>
Created by potrace 1.11, written by Peter Selinger 2001-2013
</metadata>
<g transform="translate(0.000000,250.000000) scale(0.100000,-0.100000)"
fill="#000000" stroke="none">
<path d="M1918 1975 c-3 -3 -88 -12 -198 -21 -41 -3 -86 -8 -100 -10 -103 -17
-466 -22 -770 -10 -102 4 -237 9 -300 11 -63 3 -166 7 -229 10 -64 3 -119 1
-125 -5 -18 -14 -10 -132 9 -142 17 -10 20 -45 4 -50 -5 -2 -12 -21 -14 -42
-2 -21 -13 -51 -24 -67 -27 -36 -26 -50 3 -84 24 -27 34 -58 41 -122 1 -18 10
-40 19 -48 9 -9 16 -27 16 -41 0 -13 4 -24 10 -24 5 0 7 -7 4 -15 -4 -8 -2
-15 3 -15 5 0 8 -13 5 -30 -3 -21 0 -30 9 -30 25 0 43 -44 45 -110 1 -36 7
-66 13 -68 6 -2 11 -8 11 -14 0 -5 7 -16 15 -24 8 -9 15 -29 15 -45 0 -16 5
-29 11 -29 8 0 7 -5 -1 -15 -10 -12 -10 -24 -2 -53 15 -49 16 -148 3 -191 -10
-33 -9 -36 30 -74 l41 -40 156 -4 c453 -12 799 -8 1002 12 169 16 222 16 241
-1 10 -9 19 -22 19 -28 0 -19 41 -49 67 -49 32 0 34 4 23 43 -12 41 -1 56 57
81 37 16 43 23 43 47 0 16 10 42 21 57 32 40 24 134 -14 168 -18 15 -19 23
-11 55 5 22 15 37 24 38 42 1 120 18 120 24 0 5 14 11 30 15 34 7 58 38 66 81
3 16 16 40 30 55 19 20 24 35 23 75 -2 77 -10 96 -56 119 -30 15 -42 28 -47
49 -7 34 -33 66 -52 66 -7 0 -25 25 -39 55 -18 37 -32 55 -45 55 -9 0 -33 6
-52 14 -30 13 -37 23 -56 82 -21 66 -21 66 -2 104 16 32 18 44 9 69 -6 17 -19
36 -29 41 -10 5 -21 23 -25 39 -5 24 -35 47 -47 36z"/>
</g>
</svg>
